<?xml version="1.0" encoding="UTF-8" standalone="no"?>
<svg width="56px" height="44px" viewBox="0 0 56 44" version="1.1" xmlns="http://www.w3.org/2000/svg" xmlns:xlink="http://www.w3.org/1999/xlink">
    <!-- Generator: Sketch 39 (31667) - http://www.bohemiancoding.com/sketch -->
    <title>icon-company</title>
    <desc>Created with Sketch.</desc>
    <defs></defs>
    <g id="Page-1" stroke="none" stroke-width="1" fill="none" fill-rule="evenodd">
        <g id="icon-company" fill="#434F60">
            <path d="M39.6666667,14.6666667 L31,14.6666667 L31,12.6666667 C31,12.3 30.7,12 30.3333333,12 L25,12 C24.6333333,12 24.3333333,12.3 24.3333333,12.6666667 L24.3333333,14.6666667 L15.6666667,14.6666667 C15.3,14.6666667 15,14.9666667 15,15.3333333 L15,31.3333333 C15,31.7 15.3,32 15.6666667,32 L39.6666667,32 C40.0333333,32 40.3333333,31.7 40.3333333,31.3333333 L40.3333333,15.3333333 C40.3333333,14.9666667 40.0333333,14.6666667 39.6666667,14.6666667 L39.6666667,14.6666667 Z M25.6666667,13.3333333 L29.6666667,13.3333333 L29.6666667,14.6666667 L25.6666667,14.6666667 L25.6666667,13.3333333 L25.6666667,13.3333333 Z M39,30.6666667 L16.3333333,30.6666667 L16.3333333,24 L25.6666667,24 L25.6666667,25.9666667 C25.6666667,26.3333333 25.9666667,26.6333333 26.3333333,26.6333333 L29,26.6333333 C29.3666667,26.6333333 29.6666667,26.3333333 29.6666667,25.9666667 L29.6666667,24 L39,24 L39,30.6666667 L39,30.6666667 Z M27,25.3 L27,21.3 L28.3333333,21.3 L28.3333333,25.3 L27,25.3 L27,25.3 Z M39,22.6666667 L29.6666667,22.6666667 L29.6666667,20.6666667 C29.6666667,20.3 29.3666667,20 29,20 L26.3333333,20 C25.9666667,20 25.6666667,20.3 25.6666667,20.6666667 L25.6666667,22.6666667 L16.3333333,22.6666667 L16.3333333,16 L39,16 L39,22.6666667 L39,22.6666667 Z" id="Briefcase"></path>
        </g>
    </g>
</svg>