<?xml version="1.0" encoding="UTF-8" standalone="no"?>
<svg width="56px" height="44px" viewBox="0 0 56 44" version="1.1" xmlns="http://www.w3.org/2000/svg" xmlns:xlink="http://www.w3.org/1999/xlink">
    <!-- Generator: Sketch 39 (31667) - http://www.bohemiancoding.com/sketch -->
    <title>icon-phone</title>
    <desc>Created with Sketch.</desc>
    <defs></defs>
    <g id="Page-1" stroke="none" stroke-width="1" fill="none" fill-rule="evenodd">
        <g id="icon-phone" fill="#434F60">
            <path d="M34.5454545,6 L21.4545455,6 C20.1045455,6 19,7.10454545 19,8.45454545 L19,35.4545455 C19,36.8045455 20.1045455,37.9090909 21.4545455,37.9090909 L34.5454545,37.9090909 C35.8954545,37.9090909 37,36.8045455 37,35.4545455 L37,8.45454545 C37,7.10454545 35.8954545,6 34.5454545,6 L34.5454545,6 Z M35.3636364,35.4545455 C35.3636364,35.9045455 34.9954545,36.2727273 34.5454545,36.2727273 L21.4545455,36.2727273 C21.0045455,36.2727273 20.6363636,35.9045455 20.6363636,35.4545455 L20.6363636,33.8181818 L35.3636364,33.8181818 L35.3636364,35.4545455 L35.3636364,35.4545455 Z M35.3636364,32.1818182 L20.6363636,32.1818182 L20.6363636,11.7272727 L35.3636364,11.7272727 L35.3636364,32.1818182 L35.3636364,32.1818182 Z M35.3636364,10.0909091 L20.6363636,10.0909091 L20.6363636,8.45454545 C20.6363636,8.00454545 21.0045455,7.63636364 21.4545455,7.63636364 L34.5454545,7.63636364 C34.9954545,7.63636364 35.3636364,8.00454545 35.3636364,8.45454545 L35.3636364,10.0909091 L35.3636364,10.0909091 Z" id="Phone"></path>
        </g>
    </g>
</svg>