<?xml version="1.0" encoding="UTF-8" standalone="no"?>
<svg width="56px" height="44px" viewBox="0 0 56 44" version="1.1" xmlns="http://www.w3.org/2000/svg" xmlns:xlink="http://www.w3.org/1999/xlink">
    <!-- Generator: Sketch 39 (31667) - http://www.bohemiancoding.com/sketch -->
    <title>icon-name</title>
    <desc>Created with Sketch.</desc>
    <defs></defs>
    <g id="Page-1" stroke="none" stroke-width="1" fill="none" fill-rule="evenodd">
        <g id="icon-name" fill="#434F60">
            <path d="M26.0769231,22 C26.0769231,22.3807692 25.7653846,22.6923077 25.3846154,22.6923077 L19.1538462,22.6923077 C18.7730769,22.6923077 18.4615385,22.3807692 18.4615385,22 C18.4615385,21.6192308 18.7730769,21.3076923 19.1538462,21.3076923 L25.3846154,21.3076923 C25.7653846,21.3076923 26.0769231,21.6192308 26.0769231,22 L26.0769231,22 Z M24,26.1538462 L19.1538462,26.1538462 C18.7730769,26.1538462 18.4615385,26.4653846 18.4615385,26.8461538 C18.4615385,27.2269231 18.7730769,27.5384615 19.1538462,27.5384615 L24,27.5384615 C24.3807692,27.5384615 24.6923077,27.2269231 24.6923077,26.8461538 C24.6923077,26.4653846 24.3807692,26.1538462 24,26.1538462 L24,26.1538462 Z M25.3846154,16.4615385 L19.1538462,16.4615385 C18.7730769,16.4615385 18.4615385,16.7730769 18.4615385,17.1538462 C18.4615385,17.5346154 18.7730769,17.8461538 19.1538462,17.8461538 L25.3846154,17.8461538 C25.7653846,17.8461538 26.0769231,17.5346154 26.0769231,17.1538462 C26.0769231,16.7730769 25.7653846,16.4615385 25.3846154,16.4615385 L25.3846154,16.4615385 Z M41.3076923,13.6923077 L41.3076923,30.3076923 C41.3076923,30.6884615 40.9961538,31 40.6153846,31 L15.6923077,31 C15.3115385,31 15,30.6884615 15,30.3076923 L15,13.6923077 C15,13.3115385 15.3115385,13 15.6923077,13 L40.6153846,13 C40.9961538,13 41.3076923,13.3115385 41.3076923,13.6923077 L41.3076923,13.6923077 Z M39.9230769,14.3846154 L16.3846154,14.3846154 L16.3846154,29.6153846 L39.9230769,29.6153846 L39.9230769,14.3846154 L39.9230769,14.3846154 Z M37.8115385,26.8461538 C37.8115385,27.2269231 37.5,27.5384615 37.1192308,27.5384615 L27.4615385,27.5384615 C27.0807692,27.5384615 26.7692308,27.2269231 26.7692308,26.8461538 C26.7692308,24.5615385 28.1192308,22.6230769 30.0923077,21.7576923 C29.4346154,21.1 28.9846154,20.2 28.9846154,19.2307692 C28.9846154,17.3961538 30.5076923,15.7692308 32.2730769,15.7692308 C34.0384615,15.7692308 35.5615385,17.3961538 35.5615385,19.2307692 C35.5615385,20.2 35.1461538,21.1 34.4538462,21.7576923 C36.4269231,22.6230769 37.8115385,24.5615385 37.8115385,26.8461538 L37.8115385,26.8461538 Z M30.3692308,19.2307692 C30.3692308,20.2 31.2,21.3076923 32.2730769,21.3076923 C33.3461538,21.3076923 34.1769231,20.2 34.1769231,19.2307692 C34.1769231,18.2615385 33.3461538,17.1538462 32.2730769,17.1538462 C31.2,17.1538462 30.3692308,18.2615385 30.3692308,19.2307692 L30.3692308,19.2307692 Z M36.3923077,26.1538462 C36.0807692,24.1807692 34.35,22.6923077 32.3076923,22.6923077 C30.2653846,22.6923077 28.5692308,24.1807692 28.2230769,26.1538462 L36.3923077,26.1538462 L36.3923077,26.1538462 Z" id="Profile"></path>
        </g>
    </g>
</svg>