<?xml version="1.0" encoding="UTF-8" standalone="no"?>
<svg width="56px" height="44px" viewBox="0 0 56 44" version="1.1" xmlns="http://www.w3.org/2000/svg" xmlns:xlink="http://www.w3.org/1999/xlink">
    <!-- Generator: Sketch 39 (31667) - http://www.bohemiancoding.com/sketch -->
    <title>icon-email</title>
    <desc>Created with Sketch.</desc>
    <defs></defs>
    <g id="Page-1" stroke="none" stroke-width="1" fill="none" fill-rule="evenodd">
        <g id="icon-email" fill="#434F60">
            <path d="M41,13 L15.6666667,13 C15.3,13 15,13.3 15,13.6666667 L15,30.3333333 C15,30.7 15.3,31 15.6666667,31 L41,31 C41.3666667,31 41.6666667,30.7 41.6666667,30.3333333 L41.6666667,13.6666667 C41.6666667,13.3 41.3666667,13 41,13 L41,13 Z M39.4,14.3333333 L28.3333333,25.4 L17.2666667,14.3333333 L39.4,14.3333333 L39.4,14.3333333 Z M16.3333333,15.2666667 L23.0666667,22 L16.3333333,28.7333333 L16.3333333,15.2666667 L16.3333333,15.2666667 Z M17.3,29.6666667 L24,22.9666667 L27.8666667,26.8333333 C28.1333333,27.1 28.5333333,27.1 28.8,26.8333333 L32.6666667,22.9666667 L39.3666667,29.6666667 L17.3,29.6666667 L17.3,29.6666667 Z M40.3333333,28.7333333 L33.6,22 L40.3333333,15.2666667 L40.3333333,28.7333333 L40.3333333,28.7333333 Z" id="Email"></path>
        </g>
    </g>
</svg>